<?xml version="1.0" encoding="UTF-8"?>
<!DOCTYPE X3D PUBLIC "ISO//Web3D//DTD X3D 3.2//EN" "http://www.web3d.org/specifications/x3d-3.2.dtd">
<X3D profile="Interchange" version="3.2" xmlns:xsd="http://www.w3.org/2001/XMLSchema-instance" xsd:noNamespaceSchemaLocation="http://www.web3d.org/specifications/x3d-3.2.xsd">
  <Scene>
    <Shape>
      <IndexedFaceSet coordIndex="0 1 2 -1 0 2 3 -1 4 5 2 -1 4 2 1 -1 6 7 5 -1 6 5 4 -1 8 9 7 -1 8 7 6 -1 8 10 11 -1 8 11 9 -1 10 12 13 -1 10 13 11 -1 3 2 14 -1 3 14 15 -1 16 14 2 -1 16 2 5 -1 7 17 16 -1 7 16 5 -1 7 9 18 -1 7 18 17 -1 9 11 19 -1 9 19 18 -1 11 13 20 -1 11 20 19 -1 14 21 22 -1 14 22 15 -1 16 23 21 -1 16 21 14 -1 16 17 24 -1 16 24 23 -1 17 18 25 -1 17 25 24 -1 19 26 25 -1 19 25 18 -1 19 20 27 -1 19 27 26 -1 21 28 29 -1 21 29 22 -1 21 23 30 -1 21 30 28 -1 24 31 30 -1 24 30 23 -1 25 32 31 -1 25 31 24 -1 25 26 33 -1 25 33 32 -1 26 27 34 -1 26 34 33 -1 29 28 35 -1 29 35 36 -1 30 37 35 -1 30 35 28 -1 31 38 37 -1 31 37 30 -1 32 39 38 -1 32 38 31 -1 33 40 39 -1 33 39 32 -1 33 34 41 -1 33 41 40 -1 36 35 42 -1 36 42 43 -1 35 37 44 -1 35 44 42 -1 37 38 45 -1 37 45 44 -1 38 39 46 -1 38 46 45 -1 40 47 46 -1 40 46 39 -1 41 48 47 -1 41 47 40 -1 49 50 51 -1 49 51 52 -1 49 53 54 -1 49 54 50 -1 53 55 56 -1 53 56 54 -1 55 57 58 -1 55 58 56 -1 59 60 58 -1 59 58 57 -1 61 62 60 -1 61 60 59 -1 63 64 51 -1 63 51 50 -1 54 65 63 -1 54 63 50 -1 65 54 56 -1 65 56 66 -1 66 56 58 -1 66 58 67 -1 60 68 67 -1 60 67 58 -1 62 69 68 -1 62 68 60 -1 63 70 71 -1 63 71 64 -1 65 72 70 -1 65 70 63 -1 65 66 73 -1 65 73 72 -1 66 67 74 -1 66 74 73 -1 68 75 74 -1 68 74 67 -1 68 69 76 -1 68 76 75 -1 77 71 70 -1 77 70 78 -1 70 72 79 -1 70 79 78 -1 73 80 79 -1 73 79 72 -1 81 80 73 -1 81 73 74 -1 74 75 82 -1 74 82 81 -1 75 76 83 -1 75 83 82 -1 84 85 86 -1 84 86 87 -1 84 88 89 -1 84 89 85 -1 88 90 91 -1 88 91 89 -1 92 93 91 -1 92 91 90 -1 94 95 96 -1 94 96 97 -1 94 98 99 -1 94 99 95 -1 100 101 99 -1 100 99 98 -1 102 103 101 -1 102 101 100 -1 95 104 105 -1 95 105 96 -1 95 99 106 -1 95 106 104 -1 99 101 107 -1 99 107 106 -1 103 108 107 -1 103 107 101 -1 109 110 111 -1 109 111 112 -1 113 114 110 -1 113 110 109 -1 113 115 116 -1 113 116 114 -1 115 117 118 -1 115 118 116 -1 119 120 121 -1 119 121 122 -1 120 123 124 -1 120 124 121 -1 125 126 124 -1 125 124 123 -1 125 127 128 -1 125 128 126 -1 122 121 129 -1 122 129 130 -1 124 131 129 -1 124 129 121 -1 124 126 132 -1 124 132 131 -1 126 128 133 -1 126 133 132 -1 134 135 130 -1 134 130 129 -1 136 134 129 -1 136 129 131 -1 136 131 132 -1 136 132 137 -1 137 132 133 -1 137 133 138 -1 135 134 139 -1 135 139 140 -1 136 141 139 -1 136 139 134 -1 141 136 137 -1 141 137 142 -1 143 142 137 -1 143 137 138 -1 140 139 144 -1 140 144 145 -1 141 146 144 -1 141 144 139 -1 142 147 146 -1 142 146 141 -1 143 148 147 -1 143 147 142 -1 149 150 151 -1 149 151 152 -1 150 153 154 -1 150 154 151 -1 155 156 154 -1 155 154 153 -1 155 157 158 -1 155 158 156 -1 152 151 159 -1 152 159 160 -1 154 161 159 -1 154 159 151 -1 154 156 162 -1 154 162 161 -1 156 158 163 -1 156 163 162 -1 159 164 165 -1 159 165 160 -1 161 166 164 -1 161 164 159 -1 161 162 167 -1 161 167 166 -1 162 163 168 -1 162 168 167 -1 169 170 165 -1 169 165 164 -1 171 169 164 -1 171 164 166 -1 171 166 167 -1 171 167 172 -1 168 173 172 -1 168 172 167 -1 174 170 169 -1 174 169 175 -1 171 176 175 -1 171 175 169 -1 171 172 177 -1 171 177 176 -1 173 178 177 -1 173 177 172 -1 179 180 181 -1 179 181 182 -1 183 184 181 -1 183 181 180 -1 185 186 184 -1 185 184 183 -1 185 187 188 -1 185 188 186 -1 182 181 189 -1 182 189 190 -1 181 184 191 -1 181 191 189 -1 186 192 191 -1 186 191 184 -1 186 188 193 -1 186 193 192 -1 190 189 194 -1 190 194 195 -1 191 196 194 -1 191 194 189 -1 191 192 197 -1 191 197 196 -1 193 198 197 -1 193 197 192 -1 194 199 200 -1 194 200 195 -1 196 201 199 -1 196 199 194 -1 196 197 202 -1 196 202 201 -1 202 197 198 -1 202 198 203 -1 199 204 205 -1 199 205 200 -1 204 199 201 -1 204 201 206 -1 202 207 206 -1 202 206 201 -1 202 203 208 -1 202 208 207 -1 204 209 210 -1 204 210 205 -1 211 209 204 -1 211 204 206 -1 206 207 212 -1 206 212 211 -1 207 208 213 -1 207 213 212 -1 214 215 216 -1 214 216 217 -1 215 218 219 -1 215 219 216 -1 220 221 219 -1 220 219 218 -1 220 222 223 -1 220 223 221 -1 224 225 223 -1 224 223 222 -1 226 227 225 -1 226 225 224 -1 217 228 1 -1 217 1 0 -1 229 4 1 -1 229 1 228 -1 221 6 4 -1 221 4 229 -1 221 223 8 -1 221 8 6 -1 223 225 10 -1 223 10 8 -1 227 12 10 -1 227 10 225 -1 217 216 49 -1 217 49 52 -1 219 53 49 -1 219 49 216 -1 55 53 219 -1 55 219 221 -1 221 230 57 -1 221 57 55 -1 231 59 57 -1 231 57 230 -1 227 61 59 -1 227 59 231 -1 232 233 111 -1 232 111 110 -1 234 232 110 -1 234 110 114 -1 235 234 114 -1 235 114 116 -1 235 116 118 -1 235 118 236 -1 119 233 237 -1 119 237 120 -1 234 123 120 -1 234 120 237 -1 234 235 125 -1 234 125 123 -1 236 127 125 -1 236 125 235 -1 145 144 238 -1 145 238 239 -1 144 146 240 -1 144 240 238 -1 147 241 240 -1 147 240 146 -1 147 148 242 -1 147 242 241 -1 233 232 150 -1 233 150 149 -1 234 153 150 -1 234 150 232 -1 234 243 155 -1 234 155 153 -1 236 157 155 -1 236 155 243 -1 175 244 245 -1 175 245 174 -1 244 175 176 -1 244 176 246 -1 177 247 246 -1 177 246 176 -1 247 177 178 -1 247 178 248 -1 249 250 251 -1 249 251 252 -1 250 253 252 -1 250 252 251 -1 254 255 256 -1 254 256 257 -1 255 258 257 -1 255 257 256 -1 98 259 260 -1 98 260 100 -1 261 259 98 -1 261 98 94 -1 102 100 260 -1 102 260 262 -1 261 94 97 -1 261 97 263 -1 89 91 260 -1 89 260 259 -1 89 259 261 -1 89 261 85 -1 93 262 260 -1 93 260 91 -1 86 85 261 -1 86 261 263 -1 264 265 266 -1 267 264 268 -1 269 267 270 -1 271 269 272 -1 273 271 274 -1 275 276 277 -1 276 278 279 -1 278 280 281 -1 280 282 283 -1 282 284 285 -1 264 275 265 -1 267 276 264 -1 269 278 267 -1 271 280 269 -1 273 282 271 -1 275 264 276 -1 276 267 278 -1 278 269 280 -1 280 271 282 -1 282 273 284 -1 286 287 288 -1 289 290 286 -1 291 292 289 -1 293 294 291 -1 295 296 293 -1 297 298 299 -1 299 300 301 -1 301 302 303 -1 303 304 305 -1 305 306 307 -1 286 288 297 -1 289 286 299 -1 291 289 301 -1 293 291 303 -1 295 293 305 -1 297 299 286 -1 299 301 289 -1 301 303 291 -1 303 305 293 -1 305 307 295 -1 308 309 310 -1 311 308 312 -1 313 311 314 -1 315 313 316 -1 317 315 318 -1 319 320 321 -1 320 322 323 -1 322 324 325 -1 324 326 327 -1 326 328 329 -1 308 319 309 -1 311 320 308 -1 313 322 311 -1 315 324 313 -1 317 326 315 -1 319 308 320 -1 320 311 322 -1 322 313 324 -1 324 315 326 -1 326 317 328 -1 330 331 332 -1 333 330 334 -1 335 333 336 -1 337 335 338 -1 339 337 340 -1 341 342 343 -1 342 344 345 -1 344 346 347 -1 346 348 349 -1 348 350 351 -1 330 341 331 -1 333 342 330 -1 335 344 333 -1 337 346 335 -1 339 348 337 -1 341 330 342 -1 342 333 344 -1 344 335 346 -1 346 337 348 -1 348 339 350 -1 352 353 354 -1 355 356 352 -1 357 358 355 -1 359 360 357 -1 361 362 359 -1 363 364 365 -1 365 366 367 -1 367 368 369 -1 369 370 371 -1 371 372 373 -1 352 354 363 -1 355 352 365 -1 357 355 367 -1 359 357 369 -1 361 359 371 -1 363 365 352 -1 365 367 355 -1 367 369 357 -1 369 371 359 -1 371 373 361 -1 374 375 376 -1 377 374 378 -1 379 377 380 -1 381 379 382 -1 383 381 384 -1 385 386 387 -1 386 388 389 -1 388 390 391 -1 390 392 393 -1 392 394 395 -1 374 385 375 -1 377 386 374 -1 379 388 377 -1 381 390 379 -1 383 392 381 -1 385 374 386 -1 386 377 388 -1 388 379 390 -1 390 381 392 -1 392 383 394" colorPerVertex="false" colorIndex="0 0 0 0 0 0 0 0 0 0 0 0 0 0 0 0 0 0 0 0 0 0 0 0 0 0 0 0 0 0 0 0 0 0 0 0 0 0 0 0 0 0 0 0 0 0 0 0 0 0 0 0 0 0 0 0 0 0 0 0 0 0 0 0 0 0 0 0 0 0 0 0 0 0 0 0 0 0 0 0 0 0 0 0 0 0 0 0 0 0 0 0 0 0 0 0 0 0 0 0 0 0 0 0 0 0 0 0 0 0 0 0 0 0 0 0 0 0 0 0 0 0 0 0 0 0 0 0 0 0 0 0 0 0 0 0 0 0 0 0 0 0 0 0 0 0 0 0 0 0 0 0 0 0 0 0 0 0 0 0 0 0 0 0 0 0 0 0 0 0 0 0 0 0 0 0 0 0 0 0 0 0 0 0 0 0 0 0 0 0 0 0 0 0 0 0 0 0 0 0 0 0 0 0 0 0 0 0 0 0 0 0 0 0 0 0 0 0 0 0 0 0 0 0 0 0 0 0 0 0 0 0 0 0 0 0 0 0 0 0 0 0 0 0 0 0 0 0 0 0 0 0 0 0 0 0 0 0 0 0 0 0 0 0 0 0 0 0 0 0 0 0 0 0 0 0 0 0 0 0 0 0 0 0 0 0 0 0 0 0 0 0 0 0 0 0 0 0 0 0 0 0 0 0 0 0 0 0 0 0 0 0 0 0 0 0 0 0 0 0 0 0 0 0 0 0 0 0 0 0 0 0 0 0 0 0 0 0 0 0 0 0 0 0 0 0 0 0 0 0 0 0 0 0 0 0 0 0 0 0 0 0 0 0 0 0 0 0 0 0 0 0 0 0 0 0 0 0 0 0 1 1 1 1 1 1 1 1 1 1 1 1 1 1 1 1 1 1 1 1 1 1 1 1 1 1 1 1 1 1 1 1 1 1 1 1 1 1 1 1 1 1 1 1 1 1 1 1 1 1 1 1 1 1 1 1 1 1 1 1 1 1 1 1 1 1 1 1 1 1 1 1 1 1 1 1 1 1 1 1 1 1 1 1 1 1 1 1 1 1 1 1 1 1 1 1 1 1 1 1 1 1 1 1 1 1 1 1 1 1 1 1 1 1 1 1 1 1 1 1 " normalIndex="0 0 0 -1 0 0 0 -1 1 1 1 -1 1 1 1 -1 2 2 2 -1 2 2 2 -1 3 3 3 -1 3 3 3 -1 4 4 4 -1 4 4 4 -1 5 5 5 -1 5 5 5 -1 6 6 6 -1 6 6 6 -1 7 7 7 -1 7 7 7 -1 8 8 8 -1 8 8 8 -1 9 9 9 -1 9 9 9 -1 10 10 10 -1 10 10 10 -1 11 11 11 -1 11 11 11 -1 12 12 12 -1 12 12 12 -1 13 13 13 -1 13 13 13 -1 14 14 14 -1 14 14 14 -1 15 15 15 -1 15 15 15 -1 16 16 16 -1 16 16 16 -1 17 17 17 -1 17 17 17 -1 18 18 18 -1 18 18 18 -1 19 19 19 -1 19 19 19 -1 20 20 20 -1 20 20 20 -1 21 21 21 -1 21 21 21 -1 22 22 22 -1 22 22 22 -1 23 23 23 -1 23 23 23 -1 24 24 24 -1 24 24 24 -1 25 25 25 -1 25 25 25 -1 26 26 26 -1 26 26 26 -1 27 27 27 -1 27 27 27 -1 28 28 28 -1 28 28 28 -1 29 29 29 -1 29 29 29 -1 30 30 30 -1 30 30 30 -1 31 31 31 -1 31 31 31 -1 32 32 32 -1 32 32 32 -1 33 33 33 -1 33 33 33 -1 34 34 34 -1 34 34 34 -1 35 35 35 -1 35 35 35 -1 36 36 36 -1 36 36 36 -1 37 37 37 -1 37 37 37 -1 38 38 38 -1 38 38 38 -1 39 39 39 -1 39 39 39 -1 40 40 40 -1 40 40 40 -1 41 41 41 -1 41 41 41 -1 42 42 42 -1 42 42 42 -1 43 43 43 -1 43 43 43 -1 44 44 44 -1 44 44 44 -1 45 45 45 -1 45 45 45 -1 46 46 46 -1 46 46 46 -1 47 47 47 -1 47 47 47 -1 48 48 48 -1 48 48 48 -1 49 49 49 -1 49 49 49 -1 50 50 50 -1 50 50 50 -1 51 51 51 -1 51 51 51 -1 52 52 52 -1 52 52 52 -1 53 53 53 -1 53 53 53 -1 54 54 54 -1 54 54 54 -1 55 55 55 -1 55 55 55 -1 56 56 56 -1 56 56 56 -1 57 57 57 -1 57 57 57 -1 58 58 58 -1 58 58 58 -1 59 59 59 -1 59 59 59 -1 60 60 60 -1 60 60 60 -1 61 61 61 -1 61 61 61 -1 62 62 62 -1 62 62 62 -1 63 63 63 -1 63 63 63 -1 64 64 64 -1 64 64 64 -1 65 65 65 -1 65 65 65 -1 66 66 66 -1 66 66 66 -1 67 67 67 -1 67 67 67 -1 68 68 68 -1 68 68 68 -1 69 69 69 -1 69 69 69 -1 70 70 70 -1 70 70 70 -1 71 71 71 -1 71 71 71 -1 72 72 72 -1 72 72 72 -1 73 73 73 -1 73 73 73 -1 74 74 74 -1 74 74 74 -1 75 75 75 -1 75 75 75 -1 76 76 76 -1 76 76 76 -1 77 77 77 -1 77 77 77 -1 78 78 78 -1 78 78 78 -1 79 79 79 -1 79 79 79 -1 80 80 80 -1 80 80 80 -1 81 81 81 -1 81 81 81 -1 82 82 82 -1 82 82 82 -1 83 83 83 -1 83 83 83 -1 84 84 84 -1 84 84 84 -1 85 85 85 -1 85 85 85 -1 86 86 86 -1 86 86 86 -1 87 87 87 -1 87 87 87 -1 88 88 88 -1 88 88 88 -1 89 89 89 -1 89 89 89 -1 90 90 90 -1 90 90 90 -1 91 91 91 -1 91 91 91 -1 92 92 92 -1 92 92 92 -1 93 93 93 -1 93 93 93 -1 94 94 94 -1 94 94 94 -1 95 95 95 -1 95 95 95 -1 96 96 96 -1 96 96 96 -1 97 97 97 -1 97 97 97 -1 98 98 98 -1 98 98 98 -1 99 99 99 -1 99 99 99 -1 100 100 100 -1 100 100 100 -1 101 101 101 -1 101 101 101 -1 102 102 102 -1 102 102 102 -1 103 103 103 -1 103 103 103 -1 104 104 104 -1 104 104 104 -1 105 105 105 -1 105 105 105 -1 106 106 106 -1 106 106 106 -1 107 107 107 -1 107 107 107 -1 108 108 108 -1 108 108 108 -1 109 109 109 -1 109 109 109 -1 110 110 110 -1 110 110 110 -1 111 111 111 -1 111 111 111 -1 112 112 112 -1 112 112 112 -1 113 113 113 -1 113 113 113 -1 114 114 114 -1 114 114 114 -1 115 115 115 -1 115 115 115 -1 116 116 116 -1 116 116 116 -1 117 117 117 -1 117 117 117 -1 118 118 118 -1 118 118 118 -1 119 119 119 -1 119 119 119 -1 120 120 120 -1 120 120 120 -1 121 121 121 -1 121 121 121 -1 122 122 122 -1 122 122 122 -1 123 123 123 -1 123 123 123 -1 124 124 124 -1 124 124 124 -1 125 125 125 -1 125 125 125 -1 126 126 126 -1 126 126 126 -1 127 127 127 -1 127 127 127 -1 128 128 128 -1 128 128 128 -1 129 129 129 -1 129 129 129 -1 130 130 130 -1 130 130 130 -1 131 131 131 -1 131 131 131 -1 132 132 132 -1 132 132 132 -1 133 133 133 -1 133 133 133 -1 134 134 134 -1 134 134 134 -1 135 135 135 -1 135 135 135 -1 136 136 136 -1 136 136 136 -1 137 137 137 -1 137 137 137 -1 138 138 138 -1 138 138 138 -1 139 139 139 -1 139 139 139 -1 140 140 140 -1 140 140 140 -1 141 141 141 -1 141 141 141 -1 142 142 142 -1 142 142 142 -1 143 143 143 -1 143 143 143 -1 144 144 144 -1 144 144 144 -1 145 145 145 -1 145 145 145 -1 146 146 146 -1 146 146 146 -1 147 147 147 -1 147 147 147 -1 148 148 148 -1 148 148 148 -1 149 149 149 -1 149 149 149 -1 150 150 150 -1 150 150 150 -1 151 151 151 -1 151 151 151 -1 152 152 152 -1 152 152 152 -1 153 153 153 -1 153 153 153 -1 154 154 154 -1 154 154 154 -1 155 155 155 -1 155 155 155 -1 156 156 156 -1 156 156 156 -1 157 157 157 -1 157 157 157 -1 158 158 158 -1 158 158 158 -1 159 159 159 -1 159 159 159 -1 160 160 160 -1 160 160 160 -1 161 161 161 -1 161 161 161 -1 162 162 162 -1 162 162 162 -1 163 163 163 -1 163 163 163 -1 164 164 164 -1 164 164 164 -1 165 165 165 -1 165 165 165 -1 166 166 166 -1 166 166 166 -1 167 167 167 -1 167 167 167 -1 168 168 168 -1 168 168 168 -1 169 169 169 -1 169 169 169 -1 170 170 170 -1 170 170 170 -1 171 171 171 -1 171 171 171 -1 172 172 172 -1 172 172 172 -1 173 173 173 -1 173 173 173 -1 174 174 174 -1 174 174 174 -1 175 175 175 -1 175 175 175 -1 176 176 176 -1 176 176 176 -1 177 177 177 -1 177 177 177 -1 178 178 178 -1 178 178 178 -1 179 179 179 -1 180 180 180 -1 181 181 181 -1 181 181 181 -1 182 182 182 -1 183 183 183 -1 184 184 184 -1 184 184 184 -1 185 185 185 -1 185 185 185 -1 186 186 186 -1 186 186 186 -1 187 187 187 -1 187 187 187 -1 188 188 188 -1 188 188 188 -1 189 189 189 -1 189 189 189 -1 190 190 190 -1 190 190 190 -1 191 191 191 -1 191 191 191 -1 192 192 192 -1 193 193 193 -1 194 194 194 -1 195 195 195 -1 196 196 196 -1 197 197 197 -1 198 198 198 -1 199 199 199 -1 200 200 200 -1 201 201 201 -1 202 202 202 -1 203 203 203 -1 204 204 204 -1 205 205 205 -1 206 206 206 -1 207 207 207 -1 208 208 208 -1 209 209 209 -1 210 210 210 -1 211 211 211 -1 212 212 212 -1 213 213 213 -1 214 214 214 -1 215 215 215 -1 216 216 216 -1 217 217 217 -1 218 218 218 -1 219 219 219 -1 220 220 220 -1 221 221 221 -1 222 222 222 -1 223 223 223 -1 224 224 224 -1 225 225 225 -1 226 226 226 -1 227 227 227 -1 228 228 228 -1 229 229 229 -1 230 230 230 -1 231 231 231 -1 232 232 232 -1 233 233 233 -1 234 234 234 -1 235 235 235 -1 236 236 236 -1 237 237 237 -1 238 238 238 -1 239 239 239 -1 240 240 240 -1 241 241 241 -1 242 242 242 -1 243 243 243 -1 244 244 244 -1 245 245 245 -1 246 246 246 -1 247 247 247 -1 248 248 248 -1 249 249 249 -1 250 250 250 -1 251 251 251 -1 252 252 252 -1 253 253 253 -1 254 254 254 -1 255 255 255 -1 256 256 256 -1 257 257 257 -1 258 258 258 -1 259 259 259 -1 260 260 260 -1 261 261 261 -1 262 262 262 -1 263 263 263 -1 264 264 264 -1 265 265 265 -1 266 266 266 -1 267 267 267 -1 268 268 268 -1 269 269 269 -1 270 270 270 -1 271 271 271 -1 272 272 272 -1 273 273 273 -1 274 274 274 -1 275 275 275 -1 276 276 276 -1 277 277 277 -1 278 278 278 -1 279 279 279 -1 280 280 280 -1 281 281 281 -1 282 282 282 -1 283 283 283 -1 284 284 284 -1 285 285 285 -1 286 286 286 -1 287 287 287 -1 288 288 288 -1 289 289 289 -1 290 290 290 -1 291 291 291 -1 292 292 292 -1 293 293 293 -1 294 294 294 -1 295 295 295 -1 296 296 296 -1 297 297 297 -1 298 298 298 -1 299 299 299 -1 300 300 300 -1 301 301 301 -1 302 302 302 -1 303 303 303 -1 304 304 304 -1 305 305 305 -1 306 306 306 -1 307 307 307 -1 308 308 308 -1 309 309 309 -1 310 310 310 -1 311 311 311" texCoordIndex="0 1 2 -1 0 2 3 -1 4 5 2 -1 4 2 1 -1 6 7 5 -1 6 5 4 -1 8 9 7 -1 8 7 6 -1 8 10 11 -1 8 11 9 -1 10 12 13 -1 10 13 11 -1 3 2 14 -1 3 14 15 -1 16 14 2 -1 16 2 5 -1 7 17 16 -1 7 16 5 -1 7 9 18 -1 7 18 17 -1 9 11 19 -1 9 19 18 -1 11 13 20 -1 11 20 19 -1 14 21 22 -1 14 22 15 -1 16 23 21 -1 16 21 14 -1 16 17 24 -1 16 24 23 -1 17 18 25 -1 17 25 24 -1 19 26 25 -1 19 25 18 -1 19 20 27 -1 19 27 26 -1 21 28 29 -1 21 29 22 -1 21 23 30 -1 21 30 28 -1 24 31 30 -1 24 30 23 -1 25 32 31 -1 25 31 24 -1 25 26 33 -1 25 33 32 -1 26 27 34 -1 26 34 33 -1 29 28 35 -1 29 35 36 -1 30 37 35 -1 30 35 28 -1 31 38 37 -1 31 37 30 -1 32 39 38 -1 32 38 31 -1 33 40 39 -1 33 39 32 -1 33 34 41 -1 33 41 40 -1 36 35 42 -1 36 42 43 -1 35 37 44 -1 35 44 42 -1 37 38 45 -1 37 45 44 -1 38 39 46 -1 38 46 45 -1 40 47 46 -1 40 46 39 -1 41 48 47 -1 41 47 40 -1 49 50 51 -1 49 51 52 -1 49 53 54 -1 49 54 50 -1 53 55 56 -1 53 56 54 -1 55 57 58 -1 55 58 56 -1 59 60 58 -1 59 58 57 -1 61 62 60 -1 61 60 59 -1 63 64 51 -1 63 51 50 -1 54 65 63 -1 54 63 50 -1 65 54 56 -1 65 56 66 -1 66 56 58 -1 66 58 67 -1 60 68 67 -1 60 67 58 -1 62 69 68 -1 62 68 60 -1 63 70 71 -1 63 71 64 -1 65 72 70 -1 65 70 63 -1 65 66 73 -1 65 73 72 -1 66 67 74 -1 66 74 73 -1 68 75 74 -1 68 74 67 -1 68 69 76 -1 68 76 75 -1 77 71 70 -1 77 70 78 -1 70 72 79 -1 70 79 78 -1 73 80 79 -1 73 79 72 -1 81 80 73 -1 81 73 74 -1 74 75 82 -1 74 82 81 -1 75 76 83 -1 75 83 82 -1 84 85 86 -1 84 86 87 -1 84 88 89 -1 84 89 85 -1 88 90 91 -1 88 91 89 -1 92 93 91 -1 92 91 90 -1 94 95 96 -1 94 96 97 -1 94 98 99 -1 94 99 95 -1 100 101 99 -1 100 99 98 -1 102 103 101 -1 102 101 100 -1 95 104 105 -1 95 105 96 -1 95 99 106 -1 95 106 104 -1 99 101 107 -1 99 107 106 -1 103 108 107 -1 103 107 101 -1 109 110 111 -1 109 111 112 -1 113 114 110 -1 113 110 109 -1 113 115 116 -1 113 116 114 -1 115 117 118 -1 115 118 116 -1 119 120 121 -1 119 121 122 -1 120 123 124 -1 120 124 121 -1 125 126 124 -1 125 124 123 -1 125 127 128 -1 125 128 126 -1 122 121 129 -1 122 129 130 -1 124 131 129 -1 124 129 121 -1 124 126 132 -1 124 132 131 -1 126 128 133 -1 126 133 132 -1 134 135 130 -1 134 130 129 -1 136 134 129 -1 136 129 131 -1 136 131 132 -1 136 132 137 -1 137 132 133 -1 137 133 138 -1 135 134 139 -1 135 139 140 -1 136 141 139 -1 136 139 134 -1 141 136 137 -1 141 137 142 -1 143 142 137 -1 143 137 138 -1 140 139 144 -1 140 144 145 -1 141 146 144 -1 141 144 139 -1 142 147 146 -1 142 146 141 -1 143 148 147 -1 143 147 142 -1 149 150 151 -1 149 151 152 -1 150 153 154 -1 150 154 151 -1 155 156 154 -1 155 154 153 -1 155 157 158 -1 155 158 156 -1 152 151 159 -1 152 159 160 -1 154 161 159 -1 154 159 151 -1 154 156 162 -1 154 162 161 -1 156 158 163 -1 156 163 162 -1 159 164 165 -1 159 165 160 -1 161 166 164 -1 161 164 159 -1 161 162 167 -1 161 167 166 -1 162 163 168 -1 162 168 167 -1 169 170 165 -1 169 165 164 -1 171 169 164 -1 171 164 166 -1 171 166 167 -1 171 167 172 -1 168 173 172 -1 168 172 167 -1 174 170 169 -1 174 169 175 -1 171 176 175 -1 171 175 169 -1 171 172 177 -1 171 177 176 -1 173 178 177 -1 173 177 172 -1 179 180 181 -1 179 181 182 -1 183 184 181 -1 183 181 180 -1 185 186 184 -1 185 184 183 -1 185 187 188 -1 185 188 186 -1 182 181 189 -1 182 189 190 -1 181 184 191 -1 181 191 189 -1 186 192 191 -1 186 191 184 -1 186 188 193 -1 186 193 192 -1 190 189 194 -1 190 194 195 -1 191 196 194 -1 191 194 189 -1 191 192 197 -1 191 197 196 -1 193 198 197 -1 193 197 192 -1 194 199 200 -1 194 200 195 -1 196 201 199 -1 196 199 194 -1 196 197 202 -1 196 202 201 -1 202 197 198 -1 202 198 203 -1 199 204 205 -1 199 205 200 -1 204 199 201 -1 204 201 206 -1 202 207 206 -1 202 206 201 -1 202 203 208 -1 202 208 207 -1 204 209 210 -1 204 210 205 -1 211 209 204 -1 211 204 206 -1 206 207 212 -1 206 212 211 -1 207 208 213 -1 207 213 212 -1 214 215 216 -1 214 216 217 -1 215 218 219 -1 215 219 216 -1 220 221 219 -1 220 219 218 -1 220 222 223 -1 220 223 221 -1 224 225 223 -1 224 223 222 -1 226 227 225 -1 226 225 224 -1 217 228 1 -1 217 1 0 -1 229 4 1 -1 229 1 228 -1 221 6 4 -1 221 4 229 -1 221 223 8 -1 221 8 6 -1 223 225 10 -1 223 10 8 -1 227 12 10 -1 227 10 225 -1 217 216 49 -1 217 49 52 -1 219 53 49 -1 219 49 216 -1 55 53 219 -1 55 219 221 -1 221 230 57 -1 221 57 55 -1 231 59 57 -1 231 57 230 -1 227 61 59 -1 227 59 231 -1 232 233 111 -1 232 111 110 -1 234 232 110 -1 234 110 114 -1 235 234 114 -1 235 114 116 -1 235 116 118 -1 235 118 236 -1 119 233 237 -1 119 237 120 -1 234 123 120 -1 234 120 237 -1 234 235 125 -1 234 125 123 -1 236 127 125 -1 236 125 235 -1 145 144 238 -1 145 238 239 -1 144 146 240 -1 144 240 238 -1 147 241 240 -1 147 240 146 -1 147 148 242 -1 147 242 241 -1 233 232 150 -1 233 150 149 -1 234 153 150 -1 234 150 232 -1 234 243 155 -1 234 155 153 -1 236 157 155 -1 236 155 243 -1 175 244 245 -1 175 245 174 -1 244 175 176 -1 244 176 246 -1 177 247 246 -1 177 246 176 -1 247 177 178 -1 247 178 248 -1 249 250 251 -1 249 251 252 -1 250 253 252 -1 250 252 251 -1 254 255 256 -1 254 256 257 -1 255 258 257 -1 255 257 256 -1 98 259 260 -1 98 260 100 -1 261 259 98 -1 261 98 94 -1 102 100 260 -1 102 260 262 -1 261 94 97 -1 261 97 263 -1 89 91 260 -1 89 260 259 -1 89 259 261 -1 89 261 85 -1 93 262 260 -1 93 260 91 -1 86 85 261 -1 86 261 263 -1 264 265 266 -1 267 264 268 -1 269 267 270 -1 271 269 272 -1 273 271 274 -1 275 276 277 -1 276 278 279 -1 278 280 281 -1 280 282 283 -1 282 284 285 -1 264 275 265 -1 267 276 264 -1 269 278 267 -1 271 280 269 -1 273 282 271 -1 275 264 276 -1 276 267 278 -1 278 269 280 -1 280 271 282 -1 282 273 284 -1 286 287 288 -1 289 290 286 -1 291 292 289 -1 293 294 291 -1 295 296 293 -1 297 298 299 -1 299 300 301 -1 301 302 303 -1 303 304 305 -1 305 306 307 -1 286 288 297 -1 289 286 299 -1 291 289 301 -1 293 291 303 -1 295 293 305 -1 297 299 286 -1 299 301 289 -1 301 303 291 -1 303 305 293 -1 305 307 295 -1 308 309 310 -1 311 308 312 -1 313 311 314 -1 315 313 316 -1 317 315 318 -1 319 320 321 -1 320 322 323 -1 322 324 325 -1 324 326 327 -1 326 328 329 -1 308 319 309 -1 311 320 308 -1 313 322 311 -1 315 324 313 -1 317 326 315 -1 319 308 320 -1 320 311 322 -1 322 313 324 -1 324 315 326 -1 326 317 328 -1 330 331 332 -1 333 330 334 -1 335 333 336 -1 337 335 338 -1 339 337 340 -1 341 342 343 -1 342 344 345 -1 344 346 347 -1 346 348 349 -1 348 350 351 -1 330 341 331 -1 333 342 330 -1 335 344 333 -1 337 346 335 -1 339 348 337 -1 341 330 342 -1 342 333 344 -1 344 335 346 -1 346 337 348 -1 348 339 350 -1 352 353 354 -1 355 356 352 -1 357 358 355 -1 359 360 357 -1 361 362 359 -1 363 364 365 -1 365 366 367 -1 367 368 369 -1 369 370 371 -1 371 372 373 -1 352 354 363 -1 355 352 365 -1 357 355 367 -1 359 357 369 -1 361 359 371 -1 363 365 352 -1 365 367 355 -1 367 369 357 -1 369 371 359 -1 371 373 361 -1 374 375 376 -1 377 374 378 -1 379 377 380 -1 381 379 382 -1 383 381 384 -1 385 386 387 -1 386 388 389 -1 388 390 391 -1 390 392 393 -1 392 394 395 -1 374 385 375 -1 377 386 374 -1 379 388 377 -1 381 390 379 -1 383 392 381 -1 385 374 386 -1 386 377 388 -1 388 379 390 -1 390 381 392 -1 392 383 394 -1 ">
        <Coordinate point="0.786882 2.82926 -1.29208 0.63432 3.39803 -0.788073 2.28499 4.93522 -1.78959 2.59035 4.58157 -2.36406 0.981512 3.47944 -0.0789129 2.61892 4.92501 -1.15015 1.52378 2.91226 0.0919508 3.30715 4.6892 -1.05697 1.67634 2.34349 -0.412051 3.57986 4.27748 -1.60876 1.32915 2.26209 -1.12121 3.19057 4.18931 -2.20974 0.786882 2.82926 -1.29208 2.59035 4.58157 -2.36406 3.17914 7.78206 -2.58487 3.54873 7.47469 -3.08566 3.45759 7.91591 -1.98529 4.12953 7.82592 -1.85391 4.46704 7.4315 -2.31475 4.16741 7.24017 -2.88795 3.54873 7.47469 -3.08566 4.32967 10.0261 -4.18947 4.61062 9.7155 -4.61096 4.61849 10.3778 -3.75896 5.1932 10.1512 -3.64934 5.4464 9.75916 -4.01712 5.23061 9.62172 -4.58895 4.61062 9.7155 -4.61096 4.94374 12.4323 -5.75564 5.32991 12.1494 -6.04678 5.13216 12.7581 -5.32972 5.682 12.7851 -5.24367 6.06216 12.6056 -5.61406 5.87457 12.2655 -6.02901 5.32991 12.1494 -6.04678 4.19017 14.5513 -7.82242 4.50482 14.4674 -8.187 4.29636 14.8645 -7.4208 4.81238 14.9139 -7.37723 5.12365 14.8422 -7.74729 4.97229 14.6929 -8.22209 4.50482 14.4674 -8.187 3.73223 17.4265 -7.97026 3.99985 17.357 -8.28958 3.86047 17.5496 -7.58888 4.27885 17.5479 -7.50233 4.54164 17.4121 -7.80389 4.41747 17.3449 -8.20025 3.99985 17.357 -8.28958 -1.55759 2.54365 0.157999 -3.54369 4.65459 1.16326 -3.13891 4.92041 0.608952 -1.32999 3.06875 -0.363729 -1.27446 2.48797 0.896637 -3.18725 4.57937 1.79795 -0.713633 3.03217 1.07856 -2.5597 4.89534 1.93327 -0.486032 3.55727 0.556835 -2.19822 5.25073 1.3996 -0.769166 3.61295 -0.181802 -2.47852 5.16848 0.728617 -1.32999 3.06875 -0.363729 -3.13891 4.92041 0.608952 -4.08153 7.96337 1.40745 -3.69165 8.11752 0.828338 -3.81857 7.91917 2.02716 -3.12958 8.04124 2.1732 -2.73953 7.95445 1.58035 -3.00248 7.98061 0.959613 -3.69165 8.11752 0.828338 -3.43606 10.9484 1.53576 -3.08732 11.0352 1.06462 -3.28627 11.1202 2.13284 -2.66283 11.013 2.19557 -2.3154 10.9363 1.72171 -2.46225 11.1303 1.13072 -3.08732 11.0352 1.06462 -3.48996 13.9078 1.06409 -3.90333 13.8031 1.44793 -3.71347 13.7671 1.99329 -3.18115 13.8962 2.10893 -2.83285 14.1725 1.74622 -2.99599 14.138 1.19218 -3.48996 13.9078 1.06409 -3.49063 7.64338 1.01312 -4.34707 8.11694 0.90442 -4.00133 8.77271 1.0531 -3.13923 8.37941 1.16974 -3.67443 7.55971 1.81871 -4.50992 8.03998 1.63875 -3.32303 8.29574 1.97533 -4.16418 8.69576 1.78744 -3.13923 8.37941 1.16974 -4.00133 8.77271 1.0531 -7.10149 10.9461 0.356538 -8.10324 11.5316 0.251496 -7.69876 11.9113 0.443552 -6.74064 11.3948 0.568838 -7.23338 10.7799 0.932314 -8.0992 11.2996 0.790802 -6.87331 11.2291 1.14461 -7.82275 11.7732 1.00053 -6.74064 11.3948 0.568838 -7.69876 11.9113 0.443552 -8.95731 12.5917 1.14086 -8.46285 12.8019 1.2725 -8.88589 12.2117 1.53638 -8.43099 12.471 1.71465 -8.46285 12.8019 1.2725 -3.17736 4.99241 1.52808 -2.54328 5.76185 1.81172 -2.28227 5.84553 1.04559 -2.87672 5.10514 0.686232 -2.49943 4.42257 1.69388 -1.91518 5.26874 1.96791 -2.19879 4.5353 0.85203 -1.65417 5.35241 1.20179 -2.87672 5.10514 0.686232 -2.28227 5.84553 1.04559 -0.650002 6.83895 1.47679 -0.894234 6.86803 2.01372 0.0298738 7.21088 2.69134 0.312135 7.16361 2.20397 -0.728117 6.31387 2.13249 0.133727 6.65995 2.763 -0.483885 6.28479 1.59556 0.567266 6.70004 2.40261 -0.650002 6.83895 1.47679 0.312135 7.16361 2.20397 0.635033 7.68697 3.24996 0.97366 7.64614 2.8445 0.953424 7.38978 3.5517 1.23368 7.27369 3.11728 0.97366 7.64614 2.8445 1.21664 8.65476 3.26961 1.42008 8.48807 2.84257 1.63447 8.52095 3.51262 1.85446 8.40175 3.07795 1.42008 8.48807 2.84257 1.46076 9.79022 2.97366 1.63962 9.84556 2.50049 1.91164 9.93458 3.16023 2.07711 9.72142 2.72881 1.63962 9.84556 2.50049 1.40554 11.0172 2.87937 1.54687 11.2027 2.46467 1.81029 11.1741 3.07406 1.94363 11.0134 2.64659 1.54687 11.2027 2.46467 -2.15729 7.1855 2.14287 -2.35035 6.72039 2.45419 -2.44926 7.37123 3.51805 -2.26412 7.84226 3.28072 -1.80345 6.61322 2.65402 -1.91809 7.23764 3.62975 -1.61039 7.07833 2.3427 -1.75831 7.75817 3.50332 -2.15729 7.1855 2.14287 -2.26412 7.84226 3.28072 -2.74287 7.62928 4.45258 -2.58399 8.10859 4.30162 -2.33356 7.59262 4.78256 -2.13677 8.03292 4.57001 -2.58399 8.10859 4.30162 -3.44636 8.45936 5.17168 -3.14679 8.66965 4.83075 -3.07754 8.47961 5.50897 -2.77663 8.68594 5.16679 -3.14679 8.66965 4.83075 -3.47714 9.77942 5.20787 -3.17157 9.93949 4.85731 -3.15146 9.89589 5.55751 -2.81727 9.92985 5.19828 -3.17157 9.93949 4.85731 -3.7328 11.1812 5.02111 -3.90473 10.8456 5.35205 -3.69858 11.1441 5.6986 -3.36631 11.0456 5.3358 -3.7328 11.1812 5.02111 5.56824 11.7865 -4.97864 5.62471 11.0673 -4.90753 5.79319 11.0142 -6.00004 5.748 11.6475 -6.08637 4.91558 10.9983 -5.04161 5.17074 10.9534 -6.1396 4.85911 11.7176 -5.11272 5.12555 11.5867 -6.22594 5.56824 11.7865 -4.97864 5.748 11.6475 -6.08637 6.05398 10.8789 -7.03803 6.01564 11.4634 -7.14982 5.46197 10.8451 -7.10101 5.46079 11.3852 -7.35379 6.01564 11.4634 -7.14982 6.17475 10.465 -7.86734 6.27901 10.9308 -8.18239 5.73833 10.3553 -8.2203 5.71131 10.9257 -8.25148 6.27901 10.9308 -8.18239 6.86041 10.1333 -9.0109 6.89322 10.6549 -9.06408 6.50352 10.1118 -9.39583 6.47504 10.6362 -9.38154 6.89322 10.6549 -9.06408 7.90282 10.3007 -9.89653 7.62143 10.7374 -9.75395 7.50426 10.3398 -10.2569 7.63472 10.8621 -10.2779 7.62143 10.7374 -9.75395 9.25974 10.646 -9.98339 8.96624 11.0281 -9.91979 9.04398 10.6783 -10.4176 9.05387 11.1626 -10.3784 8.96624 11.0281 -9.91979 -0.524753 -0.707811 -1.37533 -1.53072 -0.666692 -0.246043 -1.26129 2.20093 -0.194404 -0.36303 2.39901 -1.14342 -0.906262 -0.661508 1.11465 -0.714177 2.18956 0.836823 0.545834 -0.691875 1.43058 0.48326 2.3491 1.08727 1.42838 -0.731081 0.229593 1.31858 2.03719 0.103932 1.00376 -0.742633 -1.23456 0.854202 2.07139 -0.969078 -0.524753 -0.707811 -1.37533 -0.36303 2.39901 -1.14342 -0.0482781 3.49454 -0.524021 0.324427 3.47256 0.458374 0.324427 3.47256 0.458374 -0.0482781 3.49454 -0.524021 -2.25408 6.35112 2.06127 -1.91764 6.39276 1.22418 -1.52244 5.91116 2.12541 -1.18249 5.8804 1.388 -1.91764 6.39276 1.22418 -1.44617 6.78437 1.88912 1.58185 12.5037 3.05804 1.73995 12.659 2.71297 1.94016 12.411 3.18549 2.09998 12.581 2.84234 1.73995 12.659 2.71297 -1.44617 6.78437 1.88912 -4.33194 12.2734 5.42385 -4.14722 12.4928 5.11924 -4.06593 12.4726 5.66204 -3.85257 12.5966 5.35495 -4.14722 12.4928 5.11924 1.58185 12.5037 3.05804 1.94016 12.411 3.18549 1.85614 12.673 2.9672 1.73995 12.659 2.71297 2.09998 12.581 2.84234 -4.33194 12.2734 5.42385 -4.06593 12.4726 5.66204 -4.10729 12.4851 5.3907 -4.14722 12.4928 5.11924 -3.85257 12.5966 5.35495 -6.10893 9.22953 1.09234 -5.72877 9.77441 1.25323 -5.90213 9.28261 0.442941 -5.39095 9.67738 0.666911 -5.39095 9.67738 0.666911 10.8466 20.3032 -5.81436 6.87322 24.2135 -4.22274 5.90952 18.5685 -3.3188 8.06006 15.6382 -7.83539 5.90952 18.5685 -3.3188 2.36455 16.6654 -7.49283 5.90952 18.5685 -3.3188 1.63104 21.9652 -5.26009 5.90952 18.5685 -3.3188 6.87322 24.2135 -4.22274 5.90952 18.5685 -3.3188 9.61936 24.7719 -9.29799 10.3529 19.4721 -11.5307 6.07439 22.8688 -13.472 5.11069 17.2238 -12.5681 6.07439 22.8688 -13.472 1.13734 21.1341 -10.9765 6.07439 22.8688 -13.472 3.92385 25.7991 -8.95543 6.07439 22.8688 -13.472 9.61936 24.7719 -9.29799 6.07439 22.8688 -13.472 -8.0904 21.5101 5.79498 -0.851714 21.0368 6.86486 -3.50264 25.4041 1.60499 -4.99437 14.9908 7.09148 -0.851714 21.0368 6.86486 1.50683 14.8557 3.70278 -0.851714 21.0368 6.86486 2.42877 21.2915 0.311945 -0.851714 21.0368 6.86486 -3.50264 25.4041 1.60499 -0.851714 21.0368 6.86486 -9.28367 22.0573 -1.41917 -6.92512 15.8762 -4.58125 -10.2056 15.6215 1.97166 -6.92512 15.8762 -4.58125 -4.27419 11.5089 0.678616 -6.92512 15.8762 -4.58125 0.313567 15.403 -3.51137 -6.92512 15.8762 -4.58125 -2.78246 21.9222 -4.80787 -6.92512 15.8762 -4.58125 -9.28367 22.0573 -1.41917 -12.0443 16.7223 6.65824 -10.8649 19.2722 2.91027 -14.0619 15.8715 2.5175 -12.7275 12.3079 5.24887 -14.0619 15.8715 2.5175 -11.9703 12.1295 0.629857 -14.0619 15.8715 2.5175 -10.8191 16.4337 -0.81548 -14.0619 15.8715 2.5175 -10.8649 19.2722 2.91027 -14.0619 15.8715 2.5175 -7.55456 17.8104 5.88439 -8.70571 13.5062 7.32972 -5.46294 14.0684 3.99675 -8.65997 10.6677 3.60398 -5.46294 14.0684 3.99675 -7.48055 13.2176 -0.143998 -5.46294 14.0684 3.99675 -6.79736 17.632 1.26537 -5.46294 14.0684 3.99675 -7.55456 17.8104 5.88439 -5.46294 14.0684 3.99675 0.0260677 13.3493 1.17591 1.76198 15.2723 2.18123 2.72727 13.2562 0.530265 1.3649 10.9144 1.14809 2.72727 13.2562 0.530265 3.92825 11.3325 2.13621 2.72727 13.2562 0.530265 4.17366 14.0259 2.77472 2.72727 13.2562 0.530265 1.76198 15.2723 2.18123 2.72727 13.2562 0.530265 -0.196977 14.1765 3.81941 -0.442385 11.4831 3.1809 1.004 12.2528 5.42535 1.9693 10.2367 3.77439 1.004 12.2528 5.42535 3.7052 12.1597 4.77971 1.004 12.2528 5.42535 2.36637 14.5946 4.80753 1.004 12.2528 5.42535 -0.196977 14.1765 3.81941 1.004 12.2528 5.42535 13.9192 11.3979 -10.9759 11.569 9.36617 -12.6032 11.6449 12.8144 -13.2389 12.2513 8.87661 -9.19811 11.569 9.36617 -12.6032 8.94605 8.73477 -10.3623 11.569 9.36617 -12.6032 8.57131 11.1684 -12.8597 11.569 9.36617 -12.6032 11.6449 12.8144 -13.2389 11.569 9.36617 -12.6032 12.3741 14.4559 -10.2267 9.75122 13.8245 -7.9858 12.7489 12.0222 -7.72934 9.75122 13.8245 -7.9858 9.67527 10.3763 -7.35011 9.75122 13.8245 -7.9858 7.40095 11.7927 -9.61308 9.75122 13.8245 -7.9858 9.06893 14.3141 -11.3909 9.75122 13.8245 -7.9858 12.3741 14.4559 -10.2267 2.00384 21.4118 -4.55281 4.54963 22.6688 -2.18035 3.04216 19.3275 -1.67746 -0.529795 19.531 -2.62065 3.04216 19.3275 -1.67746 0.450123 19.6257 0.945956 3.04216 19.3275 -1.67746 3.58938 21.565 1.21808 3.04216 19.3275 -1.67746 4.54963 22.6688 -2.18035 3.04216 19.3275 -1.67746 1.90933 24.9374 -3.43434 -1.22992 22.9981 -3.70646 -0.68271 25.2355 -0.810925 -2.19017 21.8942 -0.308036 -0.68271 25.2355 -0.810925 0.355617 23.1513 2.06443 -0.68271 25.2355 -0.810925 2.88925 25.0321 0.132266 -0.68271 25.2355 -0.810925 1.90933 24.9374 -3.43434 -0.68271 25.2355 -0.810925"/>
        <Normal vector="-0.70718 0.3531 -0.61254 -0.57645 0.7945 0.19101 0.1575 0.41985 0.89382 0.72303 -0.33929 0.60175 0.62403 -0.74996 -0.21942 -0.12489 -0.39375 -0.91069 -0.83444 0.14372 -0.53203 -0.87974 0.3396 0.33275 -0.04282 0.25655 0.96558 0.86082 -0.09886 0.49921 0.81241 -0.3353 -0.47704 0.08931 -0.2433 -0.96583 -0.80704 -0.00842 -0.59044 -0.79607 0.55282 0.24629 -0.07381 0.60562 0.79232 0.827 0.05381 0.55963 0.80865 -0.5353 -0.24402 0.03365 -0.59079 -0.80612 -0.86124 -0.10399 -0.49744 -0.8787 0.3969 0.26526 0.03834 0.51224 0.85799 0.86321 0.09178 0.49644 0.90371 -0.34086 -0.2591 -0.03988 -0.47045 -0.88153 -0.71404 -0.59493 -0.36906 -0.92045 0.02217 0.39024 -0.14676 0.66967 0.72801 0.66934 0.64029 0.37684 0.9169 -0.01935 -0.39865 0.15883 -0.62872 -0.76124 -0.76526 -0.15591 -0.62455 -0.92879 -0.13009 0.34703 -0.0886 0.0479 0.99492 0.76944 0.1849 0.61138 0.91525 0.19439 -0.3529 -0.05331 -0.04473 -0.99758 -0.68682 -0.34038 -0.6422 -0.66416 -0.72026 0.20029 0.04632 -0.35932 0.93206 0.66602 0.36028 0.65316 0.60983 0.77285 -0.1755 -0.087 0.39534 -0.9144 -0.81486 -0.0902 -0.5726 -0.86484 -0.19522 0.46254 -0.18881 -0.10272 0.97663 0.83763 0.11095 0.53485 0.89523 0.19953 -0.39843 0.1438 0.09247 -0.98528 -0.83645 0.20275 -0.50916 -0.90817 0.13797 0.3952 -0.20774 0.00225 0.97818 0.81896 -0.13283 0.55826 0.91032 -0.13488 -0.3913 0.19102 0.02055 -0.98137 -0.66469 -0.09331 -0.74127 -0.94867 -0.14666 0.2802 -0.09801 0.01228 0.99511 0.67722 0.10277 0.72857 0.96934 0.15643 -0.18952 0.09937 0.03795 -0.99433 0.18866 0.1174 -0.975 -0.45569 -0.8687 -0.19419 -0.25526 -0.08311 0.96329 0.38759 0.90363 0.18228 0.24329 0.24805 -0.9377 -0.44738 -0.82671 -0.34119 -0.271 -0.22506 0.9359 0.4119 0.8461 0.3383 -0.14465 0.56496 -0.81234 -0.83976 -0.50103 -0.20919 0.21736 -0.49853 0.83918 0.84376 0.44611 0.29844 -0.7284 0.6634 -0.17129 -0.30946 -0.09281 0.94637 0.77585 -0.59943 0.1968 0.35675 0.15645 -0.92101 -0.21305 0.96558 -0.14921 -0.59037 -0.00398 0.80712 0.24993 -0.95404 0.16536 0.60615 0.01125 -0.79527 -0.36038 0.88508 -0.29457 -0.67792 -0.03228 0.73442 0.38909 -0.84166 0.37445 0.69704 0.07821 -0.71275 -0.72692 0.44743 -0.52095 -0.41431 0.27937 0.8662 0.75006 -0.43436 0.49873 0.4193 -0.26106 -0.8695 -0.89704 0.03404 -0.44064 -0.40788 0.29534 0.86395 0.91633 -0.08196 0.39196 0.37932 -0.28331 -0.88083 -0.93004 -0.07307 -0.36011 -0.3909 0.03198 0.91988 0.94523 0.11705 0.30471 0.46454 0.00838 -0.88552 -0.9439 0.23982 -0.22704 -0.33192 -0.8181 0.46963 0.94198 -0.22315 0.25076 0.32639 0.83316 -0.44644 -0.92124 0.19148 -0.3386 -0.27689 -0.94188 0.19024 0.90505 -0.18476 0.38307 0.23185 0.95871 -0.16468 -0.70774 0.01213 -0.70637 -0.44741 -0.76057 0.47048 0.7113 0.02124 0.70257 0.40221 0.80038 -0.44455 -0.75392 0.00043 -0.65696 -0.7201 -0.06128 0.69116 0.73139 0.01481 0.6818 0.6712 0.0286 -0.74073 -0.73357 -0.24809 -0.63271 -0.62346 -0.35217 0.69804 0.70134 0.23119 0.67429 0.64685 0.37961 -0.66142 0.98467 0.09196 0.14825 0.08523 -0.99452 0.0605 -0.9704 -0.09801 -0.22074 -0.07091 0.98855 -0.13318 0.96886 0.10001 0.22652 0.06397 -0.9874 0.14474 -0.95824 -0.10466 -0.26612 -0.05292 0.98019 -0.19087 0.97526 0.10153 0.19638 0.00938 -0.91521 0.40286 -0.97533 -0.09532 -0.19909 0.03971 0.89213 -0.45004 0.86656 0.13163 0.4814 0.05333 -0.97036 0.23573 -0.84256 -0.0691 -0.53414 0.09668 0.97793 -0.18522 0.64352 0.03747 0.76451 0.03477 -0.98869 -0.14589 -0.61011 -0.01155 -0.79223 -0.11783 0.98831 0.09672 0.12183 -0.23622 0.96403 0.19483 -0.96623 -0.16866 -0.10054 -0.01485 -0.99482 -0.18675 0.95676 0.223 -0.74219 0.08822 -0.66436 -0.90623 0.07766 0.4156 -0.20931 0.10544 0.97215 0.80433 0.08297 0.58836 0.9574 0.07713 -0.27827 0.09305 0.0693 -0.99325 -0.30174 0.53345 -0.79018 0.00597 0.99978 0.02011 0.45437 0.48318 0.74839 0.72636 -0.16118 0.66815 0.4358 -0.87363 -0.21646 0.02689 -0.38991 -0.92046 -0.69279 -0.19055 -0.69551 -0.43949 -0.86998 0.22358 -0.12126 -0.20007 0.97225 0.2787 0.49881 0.82068 0.1465 0.98864 -0.03346 -0.27681 0.53197 -0.80024 -0.80173 0.51901 -0.29641 -0.16782 -0.13675 0.97629 0.64492 -0.69116 0.32614 0.27633 0.09057 -0.95678 -0.29345 0.93804 -0.18429 -0.1455 0.27024 0.95174 0.43752 -0.86717 0.23787 0.20283 -0.02199 -0.97897 -0.95355 0.16895 -0.2494 -0.41367 -0.06013 0.90844 0.93024 -0.13537 0.34107 0.44229 0.06756 -0.89432 -0.92085 0.14232 -0.36302 -0.4428 -0.64567 0.62212 0.90215 0.03751 0.42978 0.21648 0.76637 -0.60483 -0.77136 -0.20043 -0.60401 -0.56128 -0.20822 0.80101 0.74813 0.22685 0.62357 0.57189 0.18914 -0.79823 0.07615 0.89575 0.43799 0.02951 0.89011 0.45479 0.90936 -0.05223 -0.41272 -0.66501 0.73597 0.12695 -0.39644 0.9133 0.09332 0.94852 0.28819 -0.13134 -0.34847 -0.15736 0.92402 -0.76873 -0.56936 -0.29135 0.73022 0.59323 0.3389 0.28988 0.15999 -0.9436 -0.34403 -0.03139 0.93843 -0.53814 -0.81754 -0.20501 0.4954 0.84569 0.19848 0.30151 0.05683 -0.95177 0.4301 0.07069 0.90001 0.52039 -0.58168 0.62517 -0.1249 -0.85844 0.49748 -0.614 -0.3771 0.6934 -0.27099 0.19714 0.94218 0.614 0.3771 -0.6934 0.27099 -0.19714 -0.94218 -0.4301 -0.07069 -0.90001 -0.52039 0.58168 -0.62517 0.1249 0.85844 -0.49748 0.71233 0.54263 0.44514 0.85842 -0.51294 0.00044 -0.18567 -0.96074 -0.20617 -0.97705 -0.18192 0.11083 -0.42206 0.74721 0.51336 0.97705 0.18192 -0.11083 0.42206 -0.74721 -0.51336 -0.71233 -0.54263 -0.44514 -0.85842 0.51294 -0.00044 0.18567 0.96074 0.20617 -0.04689 0.75678 0.65199 -0.13661 0.13041 0.982 0.44066 -0.26984 0.85616 0.88716 0.10914 0.44837 0.58584 0.74363 0.32219 -0.88716 -0.10914 -0.44837 -0.58584 -0.74363 -0.32219 0.04689 -0.75678 -0.65199 0.13661 -0.13041 -0.982 -0.44066 0.26984 -0.85616 -0.55407 0.81816 0.15371 -0.69925 -0.19532 0.68768 0.2348 -0.84295 0.48405 0.95725 -0.22973 -0.17576 0.46971 0.79689 -0.37993 -0.95725 0.22973 0.17576 -0.46971 -0.79689 0.37993 0.55407 -0.81816 -0.15371 0.69925 0.19532 -0.68768 -0.2348 0.84295 -0.48406 -0.72352 0.655 0.21795 -0.8989 -0.00077 0.43815 -0.89193 -0.43324 -0.12948 -0.71224 -0.04474 -0.70051 -0.60815 0.62782 -0.48578 0.71224 0.04474 0.70051 0.60815 -0.62782 0.48578 0.72352 -0.655 -0.21795 0.8989 0.00077 -0.43815 0.89193 0.43324 0.12948 -0.11078 0.83757 0.53498 -0.39456 -0.22349 0.89128 -0.38328 -0.92323 -0.02718 -0.09253 -0.29463 -0.95112 0.07588 0.7936 -0.60369 0.09253 0.29463 0.95112 -0.07588 -0.7936 0.60369 0.11078 -0.83757 -0.53498 0.39456 0.22349 -0.89128 0.38328 0.92323 0.02718 -0.17167 0.57366 -0.8009 -0.23469 -0.11802 -0.96488 0.38466 -0.43812 -0.81246 0.83046 0.05574 -0.55428 0.48663 0.68105 -0.54714 -0.83046 -0.05574 0.55428 -0.48663 -0.68105 0.54714 0.17167 -0.57366 0.8009 0.23469 0.11802 0.96488 -0.38466 0.43812 0.81246 -0.6358 0.71972 -0.27885 -0.73778 -0.39945 -0.54417 0.26435 -0.91738 -0.29756 0.98568 -0.1183 0.12018 0.42935 0.89348 0.13174 -0.98568 0.1183 -0.12018 -0.42935 -0.89348 -0.13174 0.6358 -0.71972 0.27885 0.73778 0.39945 0.54417 -0.26435 0.91738 0.29756 0.64802 -0.15186 -0.74633 0.72428 -0.64707 -0.23816 0.09885 -0.98199 -0.16099 -0.36394 -0.69377 -0.62147 -0.02453 -0.18072 -0.98323 0.36394 0.69377 0.62147 0.02453 0.18072 0.98323 -0.64802 0.15186 0.74633 -0.72428 0.64707 0.23816 -0.09885 0.98199 0.16099 0.74928 0.48822 -0.44745 0.87266 -0.31304 0.37478 -0.1393 -0.85496 0.49964 -0.88812 -0.38861 -0.24543 -0.33894 0.44152 -0.83077 0.88812 0.38861 0.24543 0.33894 -0.44152 0.83077 -0.74928 -0.48822 0.44745 -0.87266 0.31304 -0.37478 0.1393 0.85496 -0.49964 0.72196 -0.40964 -0.55765 0.11647 -0.78369 -0.61013 -0.06874 -0.9966 0.04535 0.42228 -0.75414 0.50294 0.91096 -0.39138 0.13027 -0.42228 0.75414 -0.50294 -0.91096 0.39138 -0.13027 -0.72196 0.40964 0.55765 -0.11647 0.78369 0.61013 0.06874 0.9966 -0.04535 0.58692 0.25908 -0.76708 -0.39279 -0.34614 -0.852 -0.69246 -0.69064 0.20859 0.10203 -0.29833 0.949 0.89273 0.28863 0.346 -0.10203 0.29833 -0.949 -0.89273 -0.28863 -0.346 -0.58692 -0.25908 0.76708 0.39279 0.34614 0.852 0.69246 0.69064 -0.20859"/>
        <Color color="0.2076 0.13851 0.05518 0.25686 0.44051 0.11077 "/>
        <TextureCoordinate point="0.17544 0.16357 0.22739 0.16357 0.2022 0.28826 0.15024 0.28963 0.27935 0.16357 0.25416 0.28594 0.33131 0.16357 0.30612 0.28963 0.38327 0.16357 0.35808 0.28826 0.43522 0.16357 0.41003 0.28594 0.48718 0.16357 0.46199 0.28963 0.17279 0.43576 0.12083 0.43773 0.22474 0.43447 0.2767 0.43773 0.32866 0.43576 0.38062 0.43447 0.43258 0.43773 0.1442 0.57471 0.09225 0.57668 0.19616 0.5799 0.24812 0.57668 0.30008 0.57471 0.35204 0.5799 0.40399 0.57668 0.11652 0.71731 0.06456 0.71477 0.16848 0.71696 0.22044 0.71477 0.27239 0.71731 0.32435 0.71696 0.37631 0.71477 0.08749 0.86143 0.03553 0.86116 0.13945 0.86504 0.19141 0.86116 0.24336 0.86143 0.29532 0.86504 0.34728 0.86116 0.06196 0.98866 0.01 0.99 0.11392 0.98979 0.16587 0.99 0.21783 0.98866 0.26979 0.98979 0.32175 0.99 0.22738 0.16366 0.20163 0.29243 0.14968 0.29046 0.17542 0.16366 0.27933 0.16366 0.25359 0.28895 0.33129 0.16366 0.30555 0.29046 0.38325 0.16366 0.3575 0.29243 0.43521 0.16366 0.40946 0.28895 0.48716 0.16366 0.46142 0.29046 0.17326 0.433 0.1213 0.4377 0.22522 0.43265 0.27718 0.4377 0.32913 0.433 0.38109 0.43265 0.43305 0.4377 0.14437 0.57283 0.09241 0.57602 0.19633 0.57996 0.24828 0.57602 0.30024 0.57283 0.3522 0.57996 0.40416 0.57602 0.06562 0.70965 0.11758 0.71325 0.16954 0.71177 0.2215 0.70965 0.27346 0.71325 0.32541 0.71177 0.37737 0.70965 0.52166 0.29599 0.52922 0.33376 0.47212 0.33376 0.46457 0.29599 0.57875 0.29599 0.58631 0.33376 0.63584 0.29599 0.6434 0.33376 0.69294 0.29599 0.70049 0.33376 0.56079 0.48996 0.5695 0.53431 0.51241 0.53119 0.5037 0.48994 0.61788 0.48994 0.62659 0.53119 0.67498 0.48996 0.68368 0.53431 0.73207 0.48994 0.74078 0.53119 0.57842 0.57786 0.52133 0.57632 0.63551 0.57632 0.6926 0.57786 0.74969 0.57632 0.45223 0.58649 0.45882 0.61944 0.41246 0.61944 0.40587 0.58649 0.49859 0.58649 0.50518 0.61944 0.54495 0.58649 0.55154 0.61944 0.59132 0.58649 0.59791 0.61944 0.42581 0.68619 0.47217 0.68619 0.48226 0.73661 0.4359 0.73318 0.51853 0.68619 0.52862 0.73318 0.56489 0.68619 0.57498 0.73661 0.61126 0.68619 0.62135 0.73318 0.49096 0.77758 0.4446 0.77916 0.53732 0.77916 0.58368 0.77758 0.63005 0.77916 0.50011 0.82458 0.45375 0.82378 0.54648 0.82378 0.59284 0.82458 0.6392 0.82378 0.51027 0.87501 0.46391 0.87933 0.55663 0.87933 0.603 0.87501 0.64936 0.87933 0.5207 0.92489 0.47434 0.9304 0.56706 0.9304 0.61342 0.92489 0.65979 0.9304 0.42548 0.68457 0.47184 0.68457 0.48214 0.73548 0.43578 0.73351 0.51821 0.68457 0.5285 0.73351 0.56457 0.68457 0.57486 0.73548 0.61093 0.68457 0.62123 0.73351 0.4911 0.77827 0.44474 0.77957 0.53747 0.77957 0.58383 0.77827 0.63019 0.77957 0.50022 0.8247 0.45385 0.82476 0.54658 0.82476 0.59294 0.8247 0.6393 0.82476 0.51004 0.87469 0.46367 0.87674 0.5564 0.87674 0.60276 0.87469 0.64912 0.87674 0.47403 0.9299 0.52039 0.92254 0.56675 0.9299 0.61311 0.92254 0.65948 0.9299 0.52171 0.02355 0.57356 0.02355 0.56555 0.0636 0.5137 0.0636 0.62541 0.02355 0.6174 0.0636 0.67726 0.02355 0.66925 0.0636 0.72911 0.02355 0.7211 0.0636 0.55745 0.10393 0.5056 0.10122 0.6093 0.10122 0.66115 0.10393 0.713 0.10122 0.5493 0.13877 0.49746 0.14462 0.60115 0.14462 0.653 0.13877 0.70485 0.14462 0.54038 0.18795 0.48853 0.18957 0.59223 0.18957 0.64408 0.18795 0.69593 0.18957 0.53109 0.23891 0.47924 0.2309 0.58294 0.2309 0.63479 0.23891 0.68664 0.2309 0.52093 0.28951 0.46908 0.28381 0.57278 0.28381 0.62463 0.28951 0.67648 0.28381 0.20615 0.01 0.25864 0.01 0.24133 0.10256 0.18764 0.10256 0.31038 0.01 0.28996 0.10256 0.36116 0.01 0.3422 0.10256 0.41297 0.01 0.39639 0.10256 0.46555 0.01 0.44549 0.10256 0.51789 0.01 0.49938 0.10256 0.23408 0.13014 0.28717 0.12446 0.3907 0.1264 0.44262 0.12658 0.46554 0.64392 0.41719 0.64253 0.51145 0.64238 0.55441 0.64381 0.60264 0.64253 0.46773 0.66398 0.53128 0.98219 0.48491 0.98622 0.57764 0.98111 0.624 0.98561 0.67036 0.98622 0.56017 0.66256 0.53088 0.9791 0.48452 0.98384 0.57724 0.98292 0.62361 0.9845 0.66997 0.98384 0.17065 0.08144 0.15149 0.06228 0.17065 0.06228 0.18981 0.06228 0.17065 0.04311 0.16654 0.01741 0.1886 0.01 0.18128 0.02474 0.17395 0.03947 0.19601 0.03206 0.60174 0.40809 0.65883 0.41218 0.54465 0.41218 0.71592 0.40809 0.48756 0.40809 0.08842 0.84622 0.01 0.84622 0.04921 0.99 0.16684 0.84622 0.12763 0.99 0.24527 0.84622 0.20606 0.99 0.32369 0.84622 0.28448 0.99 0.40211 0.84622 0.3629 0.99 0.04921 0.70245 0.12763 0.70245 0.08842 0.55868 0.20606 0.70245 0.16684 0.55868 0.28448 0.70245 0.24527 0.55868 0.3629 0.70245 0.32369 0.55868 0.44132 0.70245 0.40211 0.55868 0.10919 0.37369 0.05959 0.55553 0.01 0.37369 0.20838 0.37369 0.15878 0.55553 0.30756 0.37369 0.25797 0.55553 0.40675 0.37369 0.35716 0.55553 0.50594 0.37369 0.45634 0.55553 0.05959 0.19184 0.10919 0.01 0.15878 0.19184 0.20838 0.01 0.25797 0.19184 0.30756 0.01 0.35716 0.19184 0.40675 0.01 0.45634 0.19184 0.50594 0.01 0.55553 0.19184 0.4642 0.87217 0.40084 0.87217 0.43252 0.98833 0.52756 0.87217 0.49588 0.98833 0.59092 0.87217 0.55924 0.98833 0.65428 0.87217 0.6226 0.98833 0.71764 0.87217 0.68596 0.98833 0.43252 0.75601 0.49588 0.75601 0.4642 0.63985 0.55924 0.75601 0.52756 0.63985 0.6226 0.75601 0.59092 0.63985 0.68596 0.75601 0.65428 0.63985 0.74932 0.75601 0.71764 0.63985 0.74809 0.58376 0.7105 0.58376 0.7293 0.65268 0.78568 0.58376 0.76688 0.65268 0.82327 0.58376 0.80447 0.65268 0.86086 0.58376 0.84206 0.65268 0.89845 0.58376 0.87965 0.65268 0.7293 0.51485 0.76688 0.51485 0.74809 0.44593 0.80447 0.51485 0.78568 0.44593 0.84206 0.51485 0.82327 0.44593 0.87965 0.51485 0.86086 0.44593 0.91724 0.51485 0.89845 0.44593 0.58808 0.26813 0.56436 0.3551 0.54064 0.26813 0.63552 0.26813 0.6118 0.3551 0.68296 0.26813 0.65924 0.3551 0.7304 0.26813 0.70668 0.3551 0.77784 0.26813 0.75412 0.3551 0.56436 0.18116 0.58808 0.09418 0.6118 0.18116 0.63552 0.09418 0.65924 0.18116 0.68296 0.09418 0.70668 0.18116 0.7304 0.09418 0.75412 0.18116 0.77784 0.09418 0.80156 0.18116 0.51552 0.54377 0.46548 0.54377 0.4905 0.63552 0.56557 0.54377 0.54055 0.63552 0.61562 0.54377 0.5906 0.63552 0.66567 0.54377 0.64065 0.63552 0.71572 0.54377 0.6907 0.63552 0.4905 0.45201 0.54055 0.45201 0.51552 0.36025 0.5906 0.45201 0.56557 0.36025 0.64065 0.45201 0.61562 0.36025 0.6907 0.45201 0.66567 0.36025 0.74075 0.45201 0.71572 0.36025"/>
      </IndexedFaceSet>
    </Shape>
  </Scene>
</X3D>
